<?xml version="1.0" encoding="utf-8"?>
<!-- Generator: Adobe Illustrator 27.6.1, SVG Export Plug-In . SVG Version: 6.00 Build 0)  -->
<svg version="1.1" id="Layer_1" xmlns="http://www.w3.org/2000/svg" xmlns:xlink="http://www.w3.org/1999/xlink" x="0px" y="0px"
	 viewBox="0 0 1000 1000" style="enable-background:new 0 0 1000 1000;" xml:space="preserve">
<style type="text/css">
	.st0{clip-path:url(#SVGID_00000039130222533542800640000005525305999308543664_);fill:#002D72;}
	.st1{clip-path:url(#SVGID_00000039130222533542800640000005525305999308543664_);}
	.st2{clip-path:url(#SVGID_00000121986337324222112830000002983343454930292409_);}
	.st3{clip-path:url(#SVGID_00000168112171188516137410000001822160827711038891_);fill:#FFFFFF;}
</style>
<g>
	<defs>
		<rect id="SVGID_00000052821031574555045110000001822008075163207849_" x="7.3" y="-24.4" width="994.8" height="1061.1"/>
	</defs>
	<clipPath id="SVGID_00000128473019370185482540000018298635518240505534_">
		<use xlink:href="#SVGID_00000052821031574555045110000001822008075163207849_"  style="overflow:visible;"/>
	</clipPath>
	<path style="clip-path:url(#SVGID_00000128473019370185482540000018298635518240505534_);fill:#FFFFFF;" d="M756,117.7
		c-0.7-1.3-43.2-22.4-43.2-22.4c-54.1-11.3-143.1-6.4-205.2,16.5h-0.2c-62.1-22.8-151.1-27.8-205.2-16.5c0,0-42.5,21-43.2,22.4
		L193.2,263c-2.1,4,1.2,7.5,5,6.7c100.1-19,215.1-24.8,309.3-24.8h0.1c94.2,0,209.2,5.9,309.3,24.8c3.8,0.8,7.1-2.7,5-6.7L756,117.7
		z M492,222.3c-71.4-2.8-194.5-2.8-256.3,19.3l43.9-109.9l29.9-16l-31.8,90.5c64.4-12.2,135.5-16.7,214.4,9.1L492,222.3z
		 M522.1,222.3v-7c78.9-25.8,150.1-21.3,214.4-9.1l-31.9-90.5l30,16l43.9,109.9C719.8,219.5,596.6,219.5,522.1,222.3"/>
	<path style="clip-path:url(#SVGID_00000128473019370185482540000018298635518240505534_);fill:#FFFFFF;" d="M915.8,63.3l-0.4-0.2
		l-2.8-0.6C780,34.1,643.7,19.8,507.5,19.8c-136.2,0-272.7,14.4-405.5,42.8l-1.3,0.3l-1.2,0.4c-21.2,5.2-36.9,25.2-36.9,48.2l0,72.2
		c0,520.5,322.1,731.7,420.8,784c7.9,4.2,16.1,6.3,24.2,6.3c8.2,0,16.3-2.1,24.1-6.4c98.5-52.2,420.6-263.4,420.6-783.9v-72.2
		C952.4,89,937.2,69.2,915.8,63.3 M489.4,937.7c-108.9-60.1-327.5-230.4-384-579.7l2.7-0.6c124.4-26.3,252.6-40.1,381.3-41.3V937.7z
		 M833.7,603c-0.1,0.1-0.1,0.3-0.2,0.4c-23.1,47.9-49.3,90.4-76.8,127.6c-0.1,0.1-0.1,0.1-0.1,0.1c-25.1,33.9-51.1,63.7-77,89.4
		V679.6l-77-51.2v259c-28.6,21.6-55,38.3-77,50.4V577.1l77,51.2V449.2l77,51.2V323.7c25.7,2.3,51.4,4.9,77,8.2v219.7l76.9,51.2
		V343.5c24.6,4.2,49.1,8.7,73.5,13.8l2.6,0.6C894.4,452.2,867.3,533.4,833.7,603 M525.7,397.9v-81.7c25.7,0.2,51.4,0.9,77,2.1v130.8
		L525.7,397.9z M923.3,183.7c0,47.4-2.9,92.1-8,134.5c-267.1-56.4-548-56.4-815.5,0.1c-5.2-42.4-8-87.2-8-134.6l0-72.2
		c0-9.8,6.7-18,15.9-20.3l0.5-0.2c128.8-27.6,262.4-42.2,399.4-42.2c136.9,0,270.3,14.6,398.9,42.1l0.3,0.1
		c9.5,1.9,16.6,10.3,16.6,20.4L923.3,183.7z"/>
	<polygon style="clip-path:url(#SVGID_00000128473019370185482540000018298635518240505534_);fill:#FFFFFF;" points="756.6,551.6 
		679.6,500.4 679.6,679.6 756.6,730.8 	"/>
	<path style="clip-path:url(#SVGID_00000128473019370185482540000018298635518240505534_);fill:#FFFFFF;" d="M324.7,664.5
		c77.7,0,140.9-63.2,140.9-140.9s-63.2-140.9-140.9-140.9c-77.7,0-140.9,63.2-140.9,140.9S247,664.5,324.7,664.5 M350.3,644
		c10.9-11.7,23.8-28.9,33.6-51.2c13.6,2.9,25.2,6.5,34.7,10.1C401.3,623.5,377.5,638.3,350.3,644 M429.3,588.2
		c-10.4-4.2-23.5-8.6-39.1-12.1c4.2-13.1,7-27.6,7.8-43.5h49.3C445.9,552.9,439.5,571.8,429.3,588.2 M429.3,459.1
		c10.2,16.4,16.6,35.3,18.1,55.7H398c-0.8-15.9-3.7-30.4-7.8-43.5C405.9,467.7,418.9,463.3,429.3,459.1 M418.7,444.3
		c-9.5,3.6-21.2,7.2-34.7,10.2c-9.8-22.3-22.7-39.4-33.6-51.2C377.5,409,401.3,423.8,418.7,444.3 M333.6,411.5
		c9.6,9.9,22.3,25.4,32.2,46.1c-9.9,1.4-20.6,2.4-32.2,2.7V411.5z M333.6,478.1c14-0.4,27.1-1.6,39-3.5c4,12,6.9,25.4,7.7,40.2
		h-46.7V478.1z M333.6,532.5h46.7c-0.9,14.7-3.7,28.1-7.8,40.2c-11.8-1.9-24.8-3.1-38.9-3.5V532.5z M333.6,587
		c11.5,0.4,22.2,1.3,32.1,2.7c-9.8,20.7-22.5,36.2-32.1,46V587z M230.7,603c9.5-3.6,21.2-7.2,34.8-10.2
		c9.8,22.3,22.8,39.5,33.7,51.2C271.9,638.3,248.1,623.5,230.7,603 M315.8,635.6c-9.6-9.9-22.2-25.4-31.9-46
		c9.9-1.4,20.5-2.3,31.9-2.7V635.6z M315.8,569.2c-14,0.4-27,1.6-38.8,3.5c-4.1-12-6.9-25.4-7.8-40.1h46.5V569.2z M315.8,514.8
		h-46.5c0.8-14.7,3.7-28.1,7.8-40.2c11.8,1.9,24.7,3.1,38.8,3.5V514.8z M315.8,460.3c-11.4-0.3-22.1-1.3-31.9-2.7
		c9.8-20.5,22.4-36.1,31.9-46V460.3z M299.2,403.2c-10.9,11.8-23.9,28.9-33.7,51.2c-13.6-2.9-25.2-6.6-34.8-10.2
		C248.1,423.8,272,409,299.2,403.2 M220.1,459.1c10.4,4.2,23.5,8.6,39.2,12.2c-4.2,13.1-7,27.6-7.8,43.5H202
		C203.5,494.4,209.9,475.5,220.1,459.1 M202,532.5h49.4c0.8,15.9,3.6,30.4,7.8,43.5c-15.7,3.5-28.7,7.9-39.2,12.2
		C209.9,571.8,203.5,552.9,202,532.5"/>
</g>
</svg>
