<?xml version="1.0" encoding="utf-8"?>
<!-- Generator: Adobe Illustrator 27.6.1, SVG Export Plug-In . SVG Version: 6.00 Build 0)  -->
<svg version="1.1" id="Layer_1" xmlns="http://www.w3.org/2000/svg" xmlns:xlink="http://www.w3.org/1999/xlink" x="0px" y="0px"
	 viewBox="0 0 1000 1000" style="enable-background:new 0 0 1000 1000;" xml:space="preserve">
<style type="text/css">
	.st0{clip-path:url(#SVGID_00000072978338054135043210000002155630170105557133_);fill:#002D72;}
	.st1{clip-path:url(#SVGID_00000072978338054135043210000002155630170105557133_);}
	.st2{clip-path:url(#SVGID_00000099663203364629492870000006457769822011065486_);}
	.st3{clip-path:url(#SVGID_00000018948295801460591490000015595342187972155579_);fill:#FFFFFF;}
</style>
<g>
	<defs>
		<rect id="SVGID_1_" x="0.9" y="-23" width="1000.8" height="1067.6"/>
	</defs>
	<clipPath id="SVGID_00000102520356513214221310000015283621041437285549_">
		<use xlink:href="#SVGID_1_"  style="overflow:visible;"/>
	</clipPath>
	<path style="clip-path:url(#SVGID_00000102520356513214221310000015283621041437285549_);fill:#002D72;" d="M518,978.3
		c23.6-13,52-31,82.8-54.2V645.3L518,590.2V978.3z"/>
	<path style="clip-path:url(#SVGID_00000102520356513214221310000015283621041437285549_);fill:#002D72;" d="M518,397.2l82.8,55.2
		V311.5c-27.6-1.3-55.2-2-82.8-2.2V397.2z"/>
	<path style="clip-path:url(#SVGID_00000102520356513214221310000015283621041437285549_);fill:#002D72;" d="M766.6,326.1
		c-27.5-3.5-55.2-6.4-82.9-8.8v190.2l82.9,55.2V326.1z"/>
	<path style="clip-path:url(#SVGID_00000102520356513214221310000015283621041437285549_);fill:#002D72;" d="M683.8,700.5v151.6
		c27.9-27.7,55.9-59.8,82.9-96.2v-0.2L683.8,700.5z"/>
	<path style="clip-path:url(#SVGID_00000102520356513214221310000015283621041437285549_);" d="M766.6,755.8c0,0,0.1-0.1,0.1-0.2
		l-0.1,0V755.8z"/>
	<path style="clip-path:url(#SVGID_00000102520356513214221310000015283621041437285549_);fill:#002D72;" d="M849.4,338.6v279.2
		l0.2,0.1c36.1-74.9,65.3-162.2,81.7-263.8l-2.8-0.6C902.3,348.1,875.9,343.1,849.4,338.6"/>
	<polygon style="clip-path:url(#SVGID_00000102520356513214221310000015283621041437285549_);fill:#002D72;" points="600.9,452.4 
		600.9,645.3 683.8,700.5 683.8,507.5 	"/>
	<path style="clip-path:url(#SVGID_00000102520356513214221310000015283621041437285549_);fill:#002D72;" d="M766.6,562.7v192.9
		l0.1,0c29.6-40.1,57.8-85.7,82.7-137.3v-0.6L766.6,562.7z"/>
	<path style="clip-path:url(#SVGID_00000102520356513214221310000015283621041437285549_);" d="M849.4,618.4
		c0.1-0.1,0.2-0.3,0.2-0.4l-0.2-0.1V618.4z"/>
	<path style="clip-path:url(#SVGID_00000102520356513214221310000015283621041437285549_);fill:#002D72;" d="M336.2,657.9
		c24.5-6.8,46-20.4,62.4-38.8c-9-3.3-19.6-6.5-31.8-9.2C357.9,629.9,346.6,645.9,336.2,657.9"/>
	<path style="clip-path:url(#SVGID_00000102520356513214221310000015283621041437285549_);fill:#002D72;" d="M204.8,619.1
		c16.5,18.4,38,32.1,62.5,38.8c-10.3-12.1-21.7-28.1-30.7-48.1C224.4,612.5,213.8,615.8,204.8,619.1"/>
	<path style="clip-path:url(#SVGID_00000102520356513214221310000015283621041437285549_);fill:#002D72;" d="M289.7,418.1
		c-9,9.9-19.5,23.8-28.3,41.5c8.9,1.2,18.3,2,28.3,2.4V418.1z"/>
	<path style="clip-path:url(#SVGID_00000102520356513214221310000015283621041437285549_);fill:#002D72;" d="M375.3,587.3
		c14.9,3.5,27.7,7.7,38.1,11.8c9.7-16.3,16.1-34.7,17.9-54.6H383C382,560,379.2,574.3,375.3,587.3"/>
	<path style="clip-path:url(#SVGID_00000102520356513214221310000015283621041437285549_);fill:#002D72;" d="M267.3,407.2
		c-24.5,6.7-46,20.4-62.5,38.9c9.1,3.2,19.6,6.5,31.8,9.2C245.6,435.3,257,419.3,267.3,407.2"/>
	<path style="clip-path:url(#SVGID_00000102520356513214221310000015283621041437285549_);fill:#002D72;" d="M398.7,446.1
		c-16.4-18.4-38-32.1-62.4-38.8c10.3,12.1,21.7,28.1,30.7,48C379.1,452.6,389.7,449.3,398.7,446.1"/>
	<path style="clip-path:url(#SVGID_00000102520356513214221310000015283621041437285549_);fill:#002D72;" d="M382.9,520.6h48.3
		c-1.8-19.8-8.2-38.3-17.9-54.6c-10.4,4.1-23.1,8.3-38.1,11.8C379.2,490.9,382,505.1,382.9,520.6"/>
	<path style="clip-path:url(#SVGID_00000102520356513214221310000015283621041437285549_);fill:#002D72;" d="M313.6,647.1
		c9-9.9,19.7-23.8,28.5-41.6c-8.9-1.2-18.4-2-28.5-2.4V647.1z"/>
	<path style="clip-path:url(#SVGID_00000102520356513214221310000015283621041437285549_);fill:#002D72;" d="M289.7,544.5h-45.2
		c1,13.9,3.8,26.6,7.6,38.2c11.6-1.8,24.1-3,37.7-3.4V544.5z"/>
	<path style="clip-path:url(#SVGID_00000102520356513214221310000015283621041437285549_);fill:#002D72;" d="M313.6,579.3
		c13.6,0.5,26.2,1.6,37.8,3.4c3.8-11.6,6.5-24.3,7.5-38.2h-45.4V579.3z"/>
	<path style="clip-path:url(#SVGID_00000102520356513214221310000015283621041437285549_);fill:#002D72;" d="M342.2,459.6
		c-8.8-17.8-19.5-31.8-28.6-41.7v44C323.8,461.6,333.3,460.8,342.2,459.6"/>
	<path style="clip-path:url(#SVGID_00000102520356513214221310000015283621041437285549_);fill:#002D72;" d="M359,520.6
		c-1-13.9-3.7-26.6-7.5-38.2c-11.6,1.8-24.3,3-37.9,3.5v34.7H359z"/>
	<path style="clip-path:url(#SVGID_00000102520356513214221310000015283621041437285549_);fill:#002D72;" d="M261.4,605.5
		c8.8,17.5,19.3,31.5,28.3,41.4v-43.8C279.7,603.6,270.3,604.4,261.4,605.5"/>
	<path style="clip-path:url(#SVGID_00000102520356513214221310000015283621041437285549_);fill:#002D72;" d="M228.2,477.9
		c-15-3.5-27.7-7.7-38.2-11.8c-9.7,16.3-16,34.7-17.9,54.6h48.4C221.5,505.1,224.3,490.9,228.2,477.9"/>
	<path style="clip-path:url(#SVGID_00000102520356513214221310000015283621041437285549_);fill:#002D72;" d="M289.7,485.9
		c-13.5-0.5-26.1-1.7-37.7-3.4c-3.8,11.6-6.5,24.3-7.6,38.2h45.2V485.9z"/>
	<path style="clip-path:url(#SVGID_00000102520356513214221310000015283621041437285549_);fill:#002D72;" d="M220.6,544.5h-48.4
		c1.8,19.9,8.2,38.3,17.9,54.6c10.5-4.1,23.2-8.3,38.2-11.9C224.3,574.3,221.5,560,220.6,544.5"/>
	<path style="clip-path:url(#SVGID_00000102520356513214221310000015283621041437285549_);fill:#002D72;" d="M65.6,354.3
		c60.8,375.9,296.2,559.4,413.4,624v-669c-138.5,1.3-276.6,16.1-410.5,44.4L65.6,354.3z M301.7,378.5c85,0,154.1,69.1,154.1,154.1
		c0,84.9-69.1,154-154.1,154c-84.9,0-154-69.2-154-154C147.7,447.6,216.8,378.5,301.7,378.5"/>
	<path style="clip-path:url(#SVGID_00000102520356513214221310000015283621041437285549_);fill:#002D72;" d="M928.3,66.9l-0.3-0.2
		C789.4,37.2,645.8,21.5,498.5,21.5c-147.5,0-291.3,15.7-430,45.4L67.9,67c-9.8,2.4-17,11.3-17,21.8l0,77.7c0,51,3.1,99.2,8.7,144.9
		c144-30.4,291.6-45.7,439.3-45.7c147.5,0,294.9,15.2,438.5,45.5c5.5-45.6,8.6-93.8,8.6-144.8l0-77.7C946.1,78,938.5,69,928.3,66.9
		 M831.5,259.2c-107.8-20.5-231.5-26.7-332.9-26.7h-0.1c-101.4,0-225.2,6.3-332.9,26.7c-4.1,0.8-7.7-2.9-5.4-7.2L231,95.5
		c0.7-1.4,46.5-24.1,46.5-24.1c58.2-12.2,154-6.9,220.9,17.7h0.2c66.9-24.6,162.6-30,220.9-17.7c0,0,45.8,22.7,46.5,24.1L836.8,252
		C839.1,256.3,835.5,260.1,831.5,259.2"/>
	<path style="clip-path:url(#SVGID_00000102520356513214221310000015283621041437285549_);fill:#002D72;" d="M701,98.3l29.8,79.8
		c-69.4-9.5-127-5.2-211.9,22.6v7.5c80.3-3,181.8-7.5,263.8,10.1l-44.7-102.9L701,98.3z"/>
	<path style="clip-path:url(#SVGID_00000102520356513214221310000015283621041437285549_);fill:#002D72;" d="M265.2,178.1L295,98.3
		l-37,17.2l-44.7,102.9c82-17.7,183.6-13.2,263.8-10.1v-7.5C392.2,172.9,334.6,168.5,265.2,178.1"/>
</g>
</svg>
